<?xml version="1.0" encoding="UTF-8"?>
<svg width="256" height="256" viewBox="0 0 256 256" xmlns="http://www.w3.org/2000/svg" fill="none">
  <defs>
    <linearGradient id="g1" x1="0" y1="0" x2="1" y2="1">
      <stop offset="0%" stop-color="#7BB1FF"/>
      <stop offset="100%" stop-color="#4D89F9"/>
    </linearGradient>
    <filter id="shadow" x="-20%" y="-20%" width="140%" height="140%">
      <feDropShadow dx="0" dy="8" stdDeviation="10" flood-color="#000" flood-opacity="0.25"/>
    </filter>
  </defs>

  <rect x="24" y="36" rx="20" ry="20" width="208" height="176" fill="url(#g1)" filter="url(#shadow)"/>
  <rect x="46" y="58" rx="12" ry="12" width="164" height="132" fill="#FFFFFF" fill-opacity="0.08" stroke="#FFFFFF" stroke-opacity="0.2"/>

  <!-- Clip shape -->
  <g transform="translate(78,78)">
    <path d="M56 0c-15.5 0-28 12.5-28 28v42c0 12.2 9.8 22 22 22s22-9.8 22-22V34" stroke="#FFFFFF" stroke-opacity="0.9" stroke-width="8" stroke-linecap="round" stroke-linejoin="round"/>
    <path d="M72 18v48c0 21-17 38-38 38S-4 87-4 66V28C-4 12.5 8.5 0 24 0" stroke="#DCE8FF" stroke-opacity="0.9" stroke-width="8" stroke-linecap="round" stroke-linejoin="round"/>
  </g>

  <!-- Badge dots -->
  <circle cx="206" cy="54" r="6" fill="#FFFFFF" fill-opacity="0.9"/>
  <circle cx="190" cy="54" r="6" fill="#FFFFFF" fill-opacity="0.6"/>

</svg>


